<svg xmlns="http://www.w3.org/2000/svg" xmlns:xlink="http://www.w3.org/1999/xlink" width="40" zoomAndPan="magnify" viewBox="0 0 30 37.92" height="40" preserveAspectRatio="xMidYMid meet" version="1.0"><defs><clipPath id="5cb1857098"><path d="M 3.753906 0 L 26.207031 0 L 26.207031 29.9375 L 3.753906 29.9375 Z M 3.753906 0 " clip-rule="nonzero"/></clipPath></defs><g clip-path="url(#5cb1857098)"><path fill="#004aad" d="M 15 16.140625 C 11.953125 16.140625 9.484375 13.671875 9.484375 10.628906 C 9.484375 7.582031 11.953125 5.113281 15 5.113281 C 18.042969 5.113281 20.511719 7.582031 20.511719 10.628906 C 20.511719 13.671875 18.042969 16.140625 15 16.140625 Z M 15 -0.0078125 C 8.800781 -0.0078125 3.773438 5.019531 3.773438 11.21875 C 3.773438 17.417969 15 29.929688 15 29.929688 C 15 29.929688 26.222656 17.417969 26.222656 11.21875 C 26.222656 5.019531 21.195312 -0.0078125 15 -0.0078125 " fill-opacity="1" fill-rule="nonzero"/></g></svg>