<svg xmlns="http://www.w3.org/2000/svg" xmlns:xlink="http://www.w3.org/1999/xlink" width="40" zoomAndPan="magnify" viewBox="0 0 30 30.000001" height="40" preserveAspectRatio="xMidYMid meet" version="1.0"><defs><clipPath id="6ba1059f78"><path d="M 4.09375 0 L 25.867188 0 L 25.867188 29.03125 L 4.09375 29.03125 Z M 4.09375 0 " clip-rule="nonzero"/></clipPath></defs><g clip-path="url(#6ba1059f78)"><path fill="#cb6ce6" d="M 15 15.652344 C 12.046875 15.652344 9.652344 13.257812 9.652344 10.304688 C 9.652344 7.351562 12.046875 4.960938 15 4.960938 C 17.949219 4.960938 20.34375 7.351562 20.34375 10.304688 C 20.34375 13.257812 17.949219 15.652344 15 15.652344 Z M 15 -0.0078125 C 8.988281 -0.0078125 4.113281 4.867188 4.113281 10.878906 C 4.113281 16.894531 15 29.023438 15 29.023438 C 15 29.023438 25.882812 16.894531 25.882812 10.878906 C 25.882812 4.867188 21.007812 -0.0078125 15 -0.0078125 " fill-opacity="1" fill-rule="nonzero"/></g></svg>